<svg width="205" height="49" viewBox="0 0 205 49" fill="none" xmlns="http://www.w3.org/2000/svg">
<path d="M76.08 36H70.608L61.456 22.144V36H55.984V13.536H61.456L70.608 27.456V13.536H76.08V36ZM97.6785 18.144V36H92.2065V33.568C91.6518 34.3573 90.8945 34.9973 89.9345 35.488C88.9958 35.9573 87.9505 36.192 86.7985 36.192C85.4332 36.192 84.2278 35.8933 83.1825 35.296C82.1372 34.6773 81.3265 33.792 80.7505 32.64C80.1745 31.488 79.8865 30.1333 79.8865 28.576V18.144H85.3265V27.84C85.3265 29.0347 85.6358 29.9627 86.2545 30.624C86.8732 31.2853 87.7052 31.616 88.7505 31.616C89.8172 31.616 90.6598 31.2853 91.2785 30.624C91.8972 29.9627 92.2065 29.0347 92.2065 27.84V18.144H97.6785ZM111.561 31.36V36H108.777C106.793 36 105.246 35.52 104.137 34.56C103.028 33.5787 102.473 31.9893 102.473 29.792V22.688H100.297V18.144H102.473V13.792H107.945V18.144H111.529V22.688H107.945V29.856C107.945 30.3893 108.073 30.7733 108.329 31.008C108.585 31.2427 109.012 31.36 109.609 31.36H111.561ZM120.081 21.12C120.721 20.1387 121.521 19.3707 122.481 18.816C123.441 18.24 124.508 17.952 125.681 17.952V23.744H124.177C122.812 23.744 121.788 24.0427 121.105 24.64C120.422 25.216 120.081 26.24 120.081 27.712V36H114.609V18.144H120.081V21.12ZM131.049 16.288C130.089 16.288 129.299 16.0107 128.681 15.456C128.083 14.88 127.785 14.176 127.785 13.344C127.785 12.4907 128.083 11.7867 128.681 11.232C129.299 10.656 130.089 10.368 131.049 10.368C131.987 10.368 132.755 10.656 133.353 11.232C133.971 11.7867 134.281 12.4907 134.281 13.344C134.281 14.176 133.971 14.88 133.353 15.456C132.755 16.0107 131.987 16.288 131.049 16.288ZM133.769 18.144V36H128.297V18.144H133.769ZM144.998 36.256C143.441 36.256 142.054 35.9893 140.838 35.456C139.622 34.9227 138.662 34.1973 137.958 33.28C137.254 32.3413 136.859 31.296 136.774 30.144H142.182C142.246 30.7627 142.534 31.264 143.046 31.648C143.558 32.032 144.187 32.224 144.934 32.224C145.617 32.224 146.139 32.096 146.502 31.84C146.886 31.5627 147.078 31.2107 147.078 30.784C147.078 30.272 146.811 29.8987 146.278 29.664C145.745 29.408 144.881 29.1307 143.686 28.832C142.406 28.5333 141.339 28.224 140.486 27.904C139.633 27.5627 138.897 27.04 138.278 26.336C137.659 25.6107 137.35 24.64 137.35 23.424C137.35 22.4 137.627 21.472 138.182 20.64C138.758 19.7867 139.59 19.1147 140.678 18.624C141.787 18.1333 143.099 17.888 144.614 17.888C146.854 17.888 148.614 18.4427 149.894 19.552C151.195 20.6613 151.942 22.1333 152.134 23.968H147.078C146.993 23.3493 146.715 22.8587 146.246 22.496C145.798 22.1333 145.201 21.952 144.454 21.952C143.814 21.952 143.323 22.08 142.982 22.336C142.641 22.5707 142.47 22.9013 142.47 23.328C142.47 23.84 142.737 24.224 143.27 24.48C143.825 24.736 144.678 24.992 145.83 25.248C147.153 25.5893 148.23 25.9307 149.062 26.272C149.894 26.592 150.619 27.1253 151.238 27.872C151.878 28.5973 152.209 29.5787 152.23 30.816C152.23 31.8613 151.931 32.8 151.334 33.632C150.758 34.4427 149.915 35.0827 148.806 35.552C147.718 36.0213 146.449 36.256 144.998 36.256ZM158.33 16.288C157.37 16.288 156.58 16.0107 155.962 15.456C155.364 14.88 155.066 14.176 155.066 13.344C155.066 12.4907 155.364 11.7867 155.962 11.232C156.58 10.656 157.37 10.368 158.33 10.368C159.268 10.368 160.036 10.656 160.634 11.232C161.252 11.7867 161.562 12.4907 161.562 13.344C161.562 14.176 161.252 14.88 160.634 15.456C160.036 16.0107 159.268 16.288 158.33 16.288ZM161.05 18.144V36H155.578V18.144H161.05ZM175.927 36L170.487 28.512V36H165.015V12.32H170.487V25.408L175.895 18.144H182.647L175.223 27.104L182.711 36H175.927ZM202.429 18.144V36H196.957V33.568C196.402 34.3573 195.645 34.9973 194.685 35.488C193.746 35.9573 192.701 36.192 191.549 36.192C190.183 36.192 188.978 35.8933 187.933 35.296C186.887 34.6773 186.077 33.792 185.501 32.64C184.925 31.488 184.637 30.1333 184.637 28.576V18.144H190.077V27.84C190.077 29.0347 190.386 29.9627 191.005 30.624C191.623 31.2853 192.455 31.616 193.501 31.616C194.567 31.616 195.41 31.2853 196.029 30.624C196.647 29.9627 196.957 29.0347 196.957 27.84V18.144H202.429Z" fill="white"/>
<path d="M19.8452 14.8608C18.4011 11.3825 17.1876 6.71427 19.9388 3.20682C22.4394 0.0180086 27.4904 -0.871866 31.7536 0.894686C29.7617 2.06008 28.6837 6.1889 26.6541 8.67629C22.7989 13.4001 20.531 13.3962 19.8452 14.8608Z" fill="#5B8F31"/>
<path d="M24.748 3.49015C23.4696 4.54596 21.3754 6.25734 20.557 9.06144C19.8432 11.5061 19.7907 13.5835 19.8214 14.8021C19.8296 14.8216 19.8374 14.8418 19.8455 14.8608C20.5314 13.3966 22.7988 13.4001 26.6545 8.67595C28.6841 6.18894 29.7617 2.06013 31.754 0.894734C31.7334 0.886185 31.7124 0.878405 31.6914 0.870245C29.0556 0.560924 25.9507 2.4969 24.748 3.49015Z" fill="#FB8500"/>
<path d="M20.5571 9.06111C21.3759 6.25701 23.4696 4.54563 24.7481 3.48982C25.9508 2.49657 29.0553 0.560593 31.6911 0.869914C27.4415 -0.862441 22.4274 0.0332698 19.9389 3.20653C17.2032 6.69456 18.388 11.3297 19.8215 14.8018C19.7908 13.5832 19.8433 11.5058 20.5571 9.06111Z" fill="#FB8500"/>
<path d="M19.9096 16.4127C19.6982 14.8568 19.6368 13.2701 19.8234 11.6952C20.006 10.1225 20.4758 8.57046 21.2433 7.17075C22.0318 5.78307 23.1144 4.57027 24.3789 3.6155C25.6433 2.65722 27.0551 1.92317 28.5197 1.35815C28.1735 1.54507 27.8269 1.72887 27.4791 1.90763C27.1254 2.07589 26.8049 2.30516 26.468 2.50218C26.302 2.60477 26.1303 2.69764 25.9678 2.80567L25.4902 3.14257L25.013 3.47872C24.8572 3.59491 24.7134 3.72624 24.5634 3.84943C23.3642 4.83141 22.3178 6.00303 21.5806 7.35961C20.8104 8.69832 20.3581 10.2022 20.1168 11.7356C20.0608 12.1199 20.0212 12.5073 19.9726 12.894L19.9046 14.0625L19.8844 15.236C19.8968 15.6273 19.905 16.0194 19.9096 16.4127Z" fill="#6A461E"/>
<path d="M29.8021 10.8152C25.1463 10.8152 21.2219 13.9364 20.0002 18.1996C18.7784 13.9364 14.854 10.8152 10.1983 10.8152C4.56598 10.8152 0 15.3812 0 21.0135C0 30.1423 7.98135 37.0045 13.8604 40.8217C13.614 40.0787 13.1551 39.0726 12.9297 38.4431C11.8821 35.5154 11.5203 33.7524 11.6248 31.6695H11.626L11.7161 21.1168C11.7181 20.8876 11.9046 20.7026 12.1339 20.7026C12.3655 20.7026 12.5532 20.8914 12.5516 21.1231L12.7801 31.8269C12.9977 31.898 13.3074 31.9369 13.6552 31.7977L13.8581 21.1188C13.8588 20.8887 14.0458 20.7026 14.2758 20.7026C14.5066 20.7026 14.6939 20.8899 14.6935 21.1211L14.8424 31.7958C15.0479 31.8716 15.3895 31.9248 15.8655 31.7725L15.9992 21.1211C15.9988 20.8903 16.1857 20.7026 16.417 20.7026C16.647 20.7026 16.8339 20.8887 16.8347 21.1188L17.022 31.7608C17.2283 31.8125 17.5416 31.8525 17.9138 31.7841L18.1415 21.1234C18.14 20.8918 18.3273 20.703 18.5593 20.703C18.7885 20.703 18.9751 20.8879 18.977 21.1172L19.0695 31.9711H19.0668C19.1534 34.7806 19.1597 36.218 18.1614 38.2235C17.6834 39.1834 16.8316 41.0576 16.8316 41.553C16.8316 41.6506 16.8312 42.0465 16.83 42.6162C18.7295 43.6806 19.9998 44.2382 19.9998 44.2382C19.9998 44.2382 21.3222 43.6942 23.2846 42.6329C22.2097 40.9437 20.4914 39.5296 20.8077 35.6332C21.4609 27.5865 22.3535 20.9587 25.1293 20.4947C25.3453 20.4586 25.5443 20.6183 25.5443 20.837V41.3339C31.4633 37.7234 40 30.8173 40 21.0139C40.0004 15.3812 35.4344 10.8152 29.8021 10.8152Z" fill="#FB8500"/>
</svg>
